<mxfile host="app.diagrams.net" agent="Mozilla/5.0 (Windows NT 10.0; Win64; x64) AppleWebKit/537.36 (KHTML, like Gecko) Chrome/131.0.0.0 Safari/537.36 Edg/131.0.0.0" version="25.0.1">
  <diagram name="第 1 页" id="NzaRF00vfo_pwO51uBme">
    <mxGraphModel dx="1146" dy="481" grid="0" gridSize="10" guides="1" tooltips="1" connect="1" arrows="1" fold="1" page="0" pageScale="1" pageWidth="827" pageHeight="1169" math="0" shadow="0">
      <root>
        <mxCell id="0" />
        <mxCell id="1" parent="0" />
        <mxCell id="jlLn7QQWbFyXG8jM2GKk-1" value="安链云网关 -（WAF防火墙）" style="rounded=0;whiteSpace=wrap;html=1;" vertex="1" parent="1">
          <mxGeometry x="-29" y="80" width="455" height="60" as="geometry" />
        </mxCell>
        <mxCell id="jlLn7QQWbFyXG8jM2GKk-8" value="" style="group" vertex="1" connectable="0" parent="1">
          <mxGeometry x="-29" y="185" width="164" height="319" as="geometry" />
        </mxCell>
        <mxCell id="jlLn7QQWbFyXG8jM2GKk-2" value="" style="rounded=0;whiteSpace=wrap;html=1;" vertex="1" parent="jlLn7QQWbFyXG8jM2GKk-8">
          <mxGeometry width="164" height="319" as="geometry" />
        </mxCell>
        <mxCell id="jlLn7QQWbFyXG8jM2GKk-3" value="数据收集" style="rounded=0;whiteSpace=wrap;html=1;" vertex="1" parent="jlLn7QQWbFyXG8jM2GKk-8">
          <mxGeometry x="22" y="50" width="120" height="60" as="geometry" />
        </mxCell>
        <mxCell id="jlLn7QQWbFyXG8jM2GKk-4" value="标签" style="rounded=0;whiteSpace=wrap;html=1;" vertex="1" parent="jlLn7QQWbFyXG8jM2GKk-8">
          <mxGeometry x="22" y="110" width="120" height="60" as="geometry" />
        </mxCell>
        <mxCell id="jlLn7QQWbFyXG8jM2GKk-5" value="圈选客群" style="rounded=0;whiteSpace=wrap;html=1;" vertex="1" parent="jlLn7QQWbFyXG8jM2GKk-8">
          <mxGeometry x="22" y="170" width="120" height="60" as="geometry" />
        </mxCell>
        <mxCell id="jlLn7QQWbFyXG8jM2GKk-6" value="用户画像" style="rounded=0;whiteSpace=wrap;html=1;" vertex="1" parent="jlLn7QQWbFyXG8jM2GKk-8">
          <mxGeometry x="22" y="230" width="120" height="60" as="geometry" />
        </mxCell>
        <mxCell id="jlLn7QQWbFyXG8jM2GKk-7" value="用户洞察" style="text;html=1;align=center;verticalAlign=middle;whiteSpace=wrap;rounded=0;fontSize=16;" vertex="1" parent="jlLn7QQWbFyXG8jM2GKk-8">
          <mxGeometry x="44.5" y="7" width="75" height="30" as="geometry" />
        </mxCell>
      </root>
    </mxGraphModel>
  </diagram>
</mxfile>
